<?xml version="1.0" encoding="iso-8859-1"?>

<!DOCTYPE svg PUBLIC "-//W3C//DTD SVG 1.1//EN" "http://www.w3.org/Graphics/SVG/1.1/DTD/svg11.dtd">
<!-- Uploaded to: SVG Repo, www.svgrepo.com, Generator: SVG Repo Mixer Tools -->
<svg version="1.1" xmlns="http://www.w3.org/2000/svg" xmlns:xlink="http://www.w3.org/1999/xlink" 
	 viewBox="0 0 512 512" xml:space="preserve">
<g id="balls_x5F_1_x5F_footbal">
	<g>
		<g>
			<defs>
				<circle id="SVGID_1_" cx="255.997" cy="255.108" r="197.391"/>
			</defs>
			<use xlink:href="#SVGID_1_"  style="overflow:visible;fill:#EEEEEE;"/>
			<clipPath id="SVGID_2_">
				<use xlink:href="#SVGID_1_"  style="overflow:visible;"/>
			</clipPath>
			<polygon style="clip-path:url(#SVGID_2_);fill:#424242;" points="294.403,26 318.137,100.068 256,145.724 193.862,99.813 
				217.597,26 			"/>
			<polygon style="clip-path:url(#SVGID_2_);fill:#424242;" points="49.955,149.063 127.455,148.874 151.927,221.904 89.51,267.215 
				26.611,222.235 			"/>
			<polygon style="clip-path:url(#SVGID_2_);fill:#424242;" points="485.56,223.493 422.243,268.183 360.248,222.478 
				385.293,149.528 462.616,150.194 			"/>
			<polygon style="clip-path:url(#SVGID_2_);fill:#424242;" points="359.993,462.855 297.557,416.942 321.284,343.667 
				398.411,344.329 422.258,417.886 			"/>
			<polygon style="clip-path:url(#SVGID_2_);fill:#424242;" points="89.736,415.144 114.901,341.843 191.918,342.599 
				214.327,416.401 151.252,461.133 			"/>
		</g>
		<polygon style="fill:#424242;" points="217.089,316 193.041,241.485 256,195.491 318.958,241.61 294.91,316 		"/>
		<g>
			<path style="fill:#424242;" d="M256,70c49.683,0,96.391,19.347,131.522,54.478S442,206.317,442,256
				s-19.347,96.391-54.478,131.522S305.683,442,256,442s-96.391-19.347-131.522-54.478S70,305.683,70,256
				s19.347-96.391,54.478-131.522S206.317,70,256,70 M256,56C145.543,56,56,145.543,56,256s89.543,200,200,200s200-89.543,200-200
				S366.457,56,256,56L256,56z"/>
		</g>
		
			<line style="fill:none;stroke:#424242;stroke-width:5;stroke-miterlimit:10;" x1="291.91" y1="312.407" x2="323.284" y2="347.667"/>
		
			<line style="fill:none;stroke:#424242;stroke-width:5;stroke-miterlimit:10;" x1="187.91" y1="347.667" x2="219.284" y2="312.407"/>
		
			<line style="fill:none;stroke:#424242;stroke-width:5;stroke-miterlimit:10;" x1="312.208" y1="244.721" x2="368.786" y2="218.286"/>
		
			<line style="fill:none;stroke:#424242;stroke-width:5;stroke-miterlimit:10;" x1="199.786" y1="244.721" x2="143.208" y2="218.286"/>
		<line style="fill:none;stroke:#424242;stroke-width:5;stroke-miterlimit:10;" x1="256.5" y1="204" x2="256.5" y2="135"/>
		<polygon style="fill:none;stroke:#424242;stroke-width:5;stroke-miterlimit:10;" points="203.236,417.5 117.862,354.512 
			85.252,253.669 117.862,154.917 203.236,94.5 308.764,94.5 394.138,154.677 426.748,254.114 394.138,354.975 308.764,417.5 		"/>
	</g>
</g>
<g id="Layer_1">
</g>
</svg>