<svg width="238" height="29" viewBox="0 0 238 29" fill="none" xmlns="http://www.w3.org/2000/svg">
<path d="M231.864 14.5272L231.863 14.5273L231.868 14.5406C231.964 14.8299 232.03 15.1352 232.062 15.4575H225.036C225.256 14.5147 225.634 13.8006 226.149 13.285C226.759 12.6865 227.607 12.3625 228.755 12.3625C229.339 12.3625 229.825 12.4634 230.225 12.6487L230.231 12.6517L230.238 12.6546C230.663 12.8368 231 13.0839 231.26 13.3925C231.528 13.71 231.73 14.0859 231.864 14.5272ZM230.913 23.1986L230.913 23.1985L230.91 23.1996C230.472 23.3423 229.926 23.42 229.262 23.42C228.615 23.42 228.033 23.3234 227.512 23.1366C227.01 22.9409 226.578 22.6554 226.21 22.2787C225.843 21.8906 225.538 21.3961 225.302 20.7838C225.116 20.2925 224.979 19.7208 224.897 19.065H235.457C235.932 19.065 236.413 18.9309 236.685 18.4995L236.685 18.4996L236.691 18.4898C236.809 18.2938 236.874 18.0522 236.914 17.803C236.954 17.5468 236.972 17.2447 236.972 16.9025C236.972 15.5582 236.767 14.3459 236.344 13.2744C235.937 12.2031 235.365 11.2907 234.622 10.5479C233.881 9.79494 232.997 9.22572 231.977 8.83982C230.958 8.45463 229.853 8.26501 228.667 8.26501C227.267 8.26501 225.99 8.50874 224.845 9.00648L224.845 9.00647L224.844 9.00728C223.723 9.49989 222.761 10.1746 221.966 11.0325L221.965 11.0327C221.183 11.8778 220.583 12.8749 220.165 14.0175C219.747 15.1499 219.54 16.3579 219.54 17.6375C219.54 19.2598 219.774 20.7102 220.255 21.9796L220.255 21.9811C220.732 23.2269 221.39 24.2901 222.236 25.1609L222.239 25.1635C223.082 26.0195 224.075 26.6706 225.213 27.1157L225.217 27.1173C226.352 27.5491 227.573 27.7625 228.877 27.7625C229.532 27.7625 230.203 27.714 230.889 27.6177C231.598 27.5199 232.288 27.3549 232.961 27.1226L232.961 27.1226L232.965 27.1209C233.653 26.8752 234.31 26.5559 234.936 26.1635L234.936 26.1636L234.941 26.1598C235.579 25.7475 236.151 25.2426 236.66 24.6473L236.927 24.3351L236.672 24.0128L235.442 22.4538C235.161 22.038 234.729 21.845 234.232 21.845C233.86 21.845 233.496 21.9588 233.148 22.1538L233.148 22.1537L233.14 22.1581C232.87 22.3159 232.545 22.4925 232.166 22.688L232.166 22.688L232.16 22.691C231.819 22.872 231.405 23.042 230.913 23.1986Z" stroke="black"/>
<path d="M211.778 27.6172C212.454 27.5188 213.106 27.3527 213.735 27.1186L213.735 27.1186L213.74 27.1167C214.382 26.8697 214.998 26.5491 215.587 26.156L215.587 26.1561L215.593 26.152C216.192 25.7403 216.743 25.2377 217.248 24.6473L217.514 24.3351L217.26 24.0128L216.03 22.4538C215.753 22.043 215.33 21.845 214.838 21.845C214.451 21.845 214.099 21.9739 213.794 22.2139C213.592 22.3711 213.349 22.5523 213.064 22.7577C212.81 22.9293 212.485 23.0987 212.081 23.2627C211.741 23.3943 211.256 23.4725 210.603 23.4725C209.979 23.4725 209.436 23.3569 208.963 23.1365C208.489 22.9038 208.084 22.5707 207.746 22.1303C207.406 21.6766 207.134 21.1072 206.937 20.4106C206.753 19.7152 206.658 18.9091 206.658 17.9875C206.658 17.0986 206.748 16.3193 206.922 15.645L206.922 15.6431C207.096 14.9595 207.351 14.3971 207.68 13.9446C208.016 13.4971 208.43 13.1601 208.925 12.9276L208.925 12.9277L208.933 12.924C209.424 12.6834 210.011 12.555 210.708 12.555C211.267 12.555 211.703 12.6214 212.029 12.7365L212.037 12.7394L212.045 12.742C212.425 12.8614 212.737 12.9984 212.988 13.1488L212.994 13.1526L213.001 13.1563C213.285 13.3152 213.524 13.4601 213.72 13.591L213.728 13.5965L213.737 13.6017C214.016 13.7725 214.322 13.8675 214.645 13.8675C214.928 13.8675 215.231 13.8138 215.473 13.6258C215.644 13.4994 215.802 13.3375 215.948 13.1514L215.955 13.1435L215.96 13.1353L217.098 11.5603L217.347 11.2151L217.046 10.914C216.198 10.0654 215.235 9.41035 214.159 8.95282C213.081 8.48918 211.839 8.26501 210.445 8.26501C208.979 8.26501 207.661 8.50748 206.503 9.0057C205.355 9.49917 204.384 10.1881 203.597 11.0743C202.814 11.9453 202.221 12.9795 201.817 14.169L201.817 14.169L201.816 14.1719C201.424 15.3485 201.23 16.6216 201.23 17.9875C201.23 19.5047 201.447 20.8766 201.89 22.0959L201.89 22.0959L201.892 22.1016C202.344 23.2976 202.959 24.3234 203.743 25.1698C204.525 26.0138 205.44 26.6616 206.486 27.1096L206.486 27.1096L206.49 27.1116C207.534 27.5464 208.644 27.7625 209.815 27.7625C210.47 27.7625 211.124 27.714 211.778 27.6172ZM211.778 27.6172C211.778 27.6172 211.778 27.6171 211.778 27.6171L211.705 27.1225L211.777 27.6173C211.777 27.6173 211.778 27.6172 211.778 27.6172Z" stroke="black"/>
<path d="M199.269 9.19642L199.476 8.54501H198.792H195.502C195.119 8.54501 194.763 8.64634 194.457 8.86717C194.168 9.07565 193.957 9.35023 193.84 9.68484L193.834 9.70084L193.83 9.71719L191.187 19.3072L191.187 19.3072L191.186 19.3112C191.101 19.632 191.021 19.9502 190.947 20.266C190.863 19.9465 190.773 19.6249 190.68 19.3012L190.68 19.3012L190.678 19.2963L187.791 9.67133C187.685 9.31912 187.465 9.03722 187.162 8.8284C186.854 8.60782 186.492 8.51001 186.105 8.51001H184.197C183.814 8.51001 183.458 8.61134 183.152 8.83217L183.152 8.83201L183.141 8.84033C182.862 9.05378 182.665 9.33331 182.564 9.66917L179.59 19.2915C179.59 19.2916 179.59 19.2918 179.589 19.292C179.489 19.6154 179.39 19.9345 179.294 20.2492C179.23 19.9437 179.159 19.6344 179.083 19.3213L179.083 19.3213L179.08 19.3105L176.507 9.72047L176.506 9.71337L176.503 9.70634C176.397 9.35212 176.175 9.06903 175.869 8.85986C175.551 8.64198 175.18 8.54501 174.782 8.54501H171.335H170.652L170.858 9.196L176.545 27.151L176.656 27.5H177.022H180.347C180.68 27.5 180.996 27.4086 181.257 27.1922C181.51 26.9822 181.665 26.6918 181.754 26.3719L185.024 16.0383L185.024 16.0384L185.026 16.0312C185.04 15.9834 185.054 15.9357 185.068 15.8879C185.079 15.924 185.09 15.96 185.101 15.9962L185.101 15.9962L185.102 16.0007L188.321 26.375C188.412 26.6814 188.554 26.9636 188.777 27.1725C189.013 27.3928 189.305 27.5 189.622 27.5H193.087H193.453L193.564 27.1514L199.269 9.19642Z" stroke="black"/>
<path d="M163.791 14.5272L163.791 14.5273L163.796 14.5406C163.892 14.8299 163.957 15.1352 163.99 15.4575H156.964C157.183 14.5147 157.562 13.8006 158.077 13.285C158.686 12.6865 159.534 12.3625 160.682 12.3625C161.267 12.3625 161.753 12.4634 162.152 12.6487L162.159 12.6517L162.166 12.6546C162.591 12.8368 162.928 13.0839 163.188 13.3925C163.456 13.71 163.658 14.0859 163.791 14.5272ZM162.841 23.1986L162.841 23.1985L162.838 23.1996C162.399 23.3423 161.854 23.42 161.19 23.42C160.543 23.42 159.961 23.3234 159.44 23.1366C158.938 22.9409 158.505 22.6554 158.138 22.2787C157.771 21.8906 157.466 21.3961 157.229 20.7838C157.043 20.2925 156.907 19.7208 156.825 19.065H167.385C167.859 19.065 168.34 18.9309 168.613 18.4995L168.613 18.4996L168.619 18.4898C168.736 18.2938 168.802 18.0522 168.841 17.803C168.882 17.5468 168.9 17.2447 168.9 16.9025C168.9 15.5582 168.694 14.3459 168.271 13.2744C167.864 12.203 167.292 11.2907 166.55 10.5479C165.809 9.79494 164.925 9.22571 163.904 8.83982C162.885 8.45464 161.781 8.26501 160.595 8.26501C159.195 8.26501 157.918 8.50874 156.773 9.00648L156.773 9.00647L156.771 9.00728C155.651 9.49989 154.689 10.1746 153.893 11.0325L153.893 11.0327C153.11 11.8778 152.511 12.8749 152.093 14.0175C151.675 15.1499 151.467 16.3579 151.467 17.6375C151.467 19.2598 151.702 20.7102 152.182 21.9796L152.183 21.9811C152.659 23.2269 153.318 24.2901 154.164 25.1609L154.166 25.1635C155.01 26.0195 156.003 26.6706 157.14 27.1157L157.145 27.1173C158.28 27.5491 159.501 27.7625 160.805 27.7625C161.46 27.7625 162.13 27.714 162.817 27.6177C163.525 27.5199 164.216 27.3549 164.888 27.1226L164.888 27.1226L164.893 27.1209C165.581 26.8752 166.238 26.5559 166.863 26.1635L166.863 26.1636L166.869 26.1598C167.506 25.7475 168.079 25.2426 168.588 24.6473L168.854 24.3351L168.6 24.0128L167.37 22.4538C167.089 22.038 166.657 21.845 166.16 21.845C165.788 21.845 165.424 21.9588 165.076 22.1538L165.076 22.1537L165.068 22.1581C164.798 22.3159 164.473 22.4925 164.094 22.688L164.093 22.688L164.088 22.691C163.747 22.872 163.333 23.042 162.841 23.1986Z" stroke="black"/>
<path d="M147.391 0.994995V0.494995H146.891H142.568H142.068V0.994995V27V27.5H142.568H146.891H147.391V27V0.994995Z" stroke="black"/>
<path d="M129.415 20.1598L129.415 20.1598L129.422 20.1585C130.123 20.024 130.974 19.9247 131.977 19.8628V22.1603C131.436 22.7077 130.892 23.1121 130.348 23.3845C129.79 23.6582 129.105 23.805 128.277 23.805C127.63 23.805 127.152 23.6596 126.804 23.4107C126.534 23.2105 126.345 22.8494 126.345 22.1875C126.345 21.9053 126.424 21.6468 126.591 21.4007C126.746 21.1729 127.029 20.9364 127.495 20.7137C127.953 20.4953 128.587 20.3072 129.415 20.1598ZM122.235 11.1787L121.943 11.4455L122.136 11.7908L122.906 13.1733L122.911 13.1821L122.916 13.1907C123.078 13.4563 123.289 13.6873 123.543 13.8847L123.55 13.8901L123.557 13.8953C123.866 14.1186 124.23 14.2175 124.62 14.2175C125.05 14.2175 125.451 14.1166 125.813 13.9067C126.104 13.7434 126.425 13.5629 126.774 13.365L126.774 13.3651L126.785 13.3587C127.102 13.1686 127.473 12.9954 127.902 12.8413C128.298 12.7029 128.821 12.625 129.485 12.625C130.348 12.625 130.936 12.8805 131.332 13.3303L131.332 13.3303L131.335 13.3341C131.731 13.7743 131.977 14.5151 131.977 15.66V16.2258C130.791 16.2719 129.718 16.3733 128.759 16.5312C127.677 16.6977 126.716 16.9192 125.879 17.1981L125.877 17.1989C125.054 17.4774 124.342 17.8094 123.75 18.2001C123.171 18.582 122.684 18.9966 122.298 19.4471L122.298 19.4471L122.292 19.4535C121.919 19.9039 121.642 20.3886 121.469 20.9075C121.3 21.4007 121.215 21.9039 121.215 22.415C121.215 23.2725 121.352 24.0469 121.639 24.7273C121.924 25.3992 122.329 25.9701 122.856 26.4313C123.377 26.8878 123.992 27.2286 124.692 27.4577L124.692 27.4578L124.7 27.4602C125.395 27.6751 126.145 27.78 126.947 27.78C127.616 27.78 128.235 27.7195 128.8 27.5945C129.369 27.4826 129.906 27.3144 130.408 27.0885C130.904 26.8651 131.381 26.5926 131.837 26.2716L131.837 26.2717L131.845 26.2664C132.1 26.0798 132.359 25.878 132.621 25.6612L132.786 26.215L132.789 26.2251L132.792 26.235C132.939 26.6632 133.17 27.0438 133.539 27.2577L133.548 27.2628L133.557 27.2675C133.882 27.4386 134.291 27.5 134.735 27.5H136.695H137.195V27V15.66C137.195 14.5959 137.036 13.606 136.712 12.6951C136.399 11.7835 135.933 10.9928 135.31 10.3313C134.687 9.65754 133.926 9.13958 133.037 8.77574C132.138 8.39653 131.132 8.21249 130.027 8.21249C127.003 8.21249 124.396 9.20085 122.235 11.1787Z" stroke="black"/>
<path d="M117.132 27.5H117.632V27V15.5725C117.632 14.5263 117.492 13.5589 117.206 12.6749C116.932 11.7798 116.517 11.0015 115.956 10.3498C115.403 9.6819 114.709 9.17025 113.885 8.81459C113.053 8.44386 112.113 8.26501 111.077 8.26501C110.437 8.26501 109.837 8.33245 109.281 8.47114C108.734 8.59572 108.216 8.77654 107.728 9.01432C107.251 9.24007 106.796 9.52109 106.362 9.85598C106.183 9.99254 106.008 10.1347 105.837 10.2823L105.721 9.72981L105.715 9.70168L105.706 9.6744C105.593 9.33465 105.403 9.04042 105.115 8.83502C104.828 8.62999 104.488 8.54502 104.129 8.54502H101.487H100.987V9.04502V27V27.5H101.487H105.809H106.309V27V14.2256C106.816 13.7425 107.345 13.361 107.894 13.0765C108.475 12.7755 109.096 12.625 109.764 12.625C110.69 12.625 111.292 12.8947 111.671 13.3536L111.671 13.3537L111.674 13.3573C112.074 13.8314 112.309 14.5461 112.309 15.5725V27V27.5H112.809H117.132Z" stroke="black"/>
<path d="M91.3904 27.0799C92.5495 26.6236 93.544 25.9664 94.3665 25.1069C95.2003 24.2478 95.8364 23.2126 96.2782 22.0099C96.7216 20.8029 96.9389 19.46 96.9389 17.9875C96.9389 16.5262 96.7215 15.1892 96.2782 13.9826C95.8362 12.7793 95.1994 11.7488 94.3639 10.9004C93.5415 10.0535 92.5478 9.40329 91.3903 8.94758C90.2392 8.48973 88.9681 8.26501 87.5839 8.26501C86.1882 8.26501 84.9058 8.48968 83.7433 8.94726C82.5854 9.40301 81.5863 10.0531 80.7527 10.8991L80.7527 10.8991L80.7501 10.9018C79.9276 11.7492 79.2919 12.7778 78.8386 13.9784L78.8386 13.9784L78.8371 13.9826C78.3938 15.1892 78.1764 16.5262 78.1764 17.9875C78.1764 19.4599 78.3937 20.8029 78.8371 22.0099L78.8371 22.0099L78.8386 22.0141C79.2917 23.2142 79.9268 24.2475 80.7476 25.1056L80.7502 25.1083C81.5839 25.9669 82.5838 26.6239 83.7433 27.0803C84.9058 27.5378 86.1882 27.7625 87.5839 27.7625C88.9681 27.7625 90.2392 27.5378 91.3904 27.0799ZM91.3904 27.0799C91.3901 27.08 91.3898 27.0802 91.3895 27.0803L91.2064 26.615M91.3904 27.0799C91.3907 27.0798 91.391 27.0797 91.3912 27.0796L91.2064 26.615M91.2064 26.615C90.1214 27.0467 88.9139 27.2625 87.5839 27.2625C86.2422 27.2625 85.0231 27.0467 83.9264 26.615C82.8297 26.1833 81.8906 25.565 81.1089 24.76M91.2064 26.615C92.3031 26.1833 93.2364 25.565 94.0064 24.76C94.7881 23.955 95.3889 22.9809 95.8089 21.8375C96.2289 20.6942 96.4389 19.4108 96.4389 17.9875C96.4389 16.5758 96.2289 15.2983 95.8089 14.155C95.3889 13.0117 94.7881 12.0433 94.0064 11.25L81.1089 24.76M81.1089 24.76C80.3389 23.955 79.7381 22.9809 79.3064 21.8375C78.8864 20.6942 78.6764 19.4108 78.6764 17.9875C78.6764 16.5758 78.8864 15.2983 79.3064 14.155L81.1089 24.76ZM90.4858 22.1401L90.4836 22.1432C89.8863 22.9853 88.9544 23.4375 87.5839 23.4375C86.1888 23.4375 85.2315 22.984 84.6117 22.1396C83.9747 21.2441 83.6214 19.8945 83.6214 18.0225C83.6214 16.1489 83.9753 14.7986 84.6133 13.9031C85.2349 13.0352 86.192 12.5725 87.5839 12.5725C88.9521 12.5725 89.8838 13.0288 90.482 13.8821L90.482 13.8821L90.4842 13.8852C91.1221 14.7803 91.4764 16.1362 91.4764 18.0225C91.4764 19.9095 91.1219 21.2578 90.4858 22.1401Z" stroke="black"/>
<path d="M68.0663 6.12521L68.0663 6.12527L68.0741 6.12771C68.6577 6.30807 69.1199 6.56675 69.4764 6.89358C69.8375 7.22457 70.1092 7.62561 70.2924 8.10383C70.4775 8.58708 70.5743 9.13777 70.5743 9.76251C70.5743 10.4242 70.4768 11.0129 70.2894 11.5342C70.1054 12.0344 69.8271 12.458 69.4535 12.8115C69.0941 13.1509 68.6293 13.4262 68.0449 13.6286C67.466 13.8175 66.7695 13.9175 65.9468 13.9175H62.9293V5.83501H65.9468C66.7838 5.83501 67.4872 5.93568 68.0663 6.12521ZM75.6332 13.3266L75.6339 13.3248C76.068 12.2333 76.2818 11.0439 76.2818 9.76251C76.2818 8.528 76.0739 7.37995 75.6519 6.32402C75.2377 5.25827 74.5964 4.34127 73.733 3.57791C72.8665 2.81191 71.7811 2.22738 70.492 1.8139C69.1937 1.39744 67.6755 1.19501 65.9468 1.19501H57.7218H57.2218V1.69501V27V27.5H57.7218H62.4293H62.9293V27V18.5925H65.9468C67.6313 18.5925 69.1217 18.3837 70.4093 17.9546C71.6994 17.5285 72.7897 16.9256 73.6663 16.1367C74.5394 15.3509 75.1963 14.4127 75.6332 13.3266Z" stroke="black"/>
<path d="M40.9991 20.9911L40.9922 20.9837L40.985 20.9765C40.7024 20.6939 40.3511 20.5325 39.9489 20.5325C39.7277 20.5325 39.5173 20.5872 39.3234 20.6898C39.1498 20.7708 38.9903 20.8796 38.8444 21.0109L38.8426 21.0125C38.4784 21.3436 38.1125 21.6216 37.7455 21.8485C37.3929 22.062 37.0121 22.2391 36.6021 22.3794L36.6021 22.3794L36.5982 22.3808C36.2034 22.5195 35.7591 22.6232 35.2628 22.6894L35.2614 22.6896C34.7749 22.7559 34.2206 22.79 33.5964 22.79C32.5872 22.79 31.6517 22.6041 30.7844 22.2359C29.917 21.856 29.1648 21.3147 28.5241 20.609C27.8855 19.9054 27.3683 19.0306 26.9789 17.9743C26.6057 16.9305 26.4139 15.7241 26.4139 14.3475C26.4139 12.9791 26.5949 11.781 26.9472 10.7461L26.9478 10.7446C27.3028 9.69069 27.7965 8.81884 28.422 8.1179L28.422 8.11791L28.4245 8.11507C29.0522 7.40075 29.7959 6.86219 30.6595 6.49517L30.6595 6.49518L30.6622 6.49399C31.5386 6.11529 32.5086 5.92251 33.5789 5.92251C34.2191 5.92251 34.7667 5.97317 35.2265 6.0694L35.2264 6.06957L35.2395 6.07194C35.7286 6.16088 36.1451 6.27561 36.4931 6.41271L36.4931 6.41287L36.5055 6.4174C36.8664 6.54861 37.1748 6.69313 37.4342 6.84875C37.7194 7.01991 37.9674 7.17785 38.1791 7.32266L38.1866 7.32785L38.1944 7.33275C38.4217 7.47633 38.6333 7.60334 38.8288 7.7133L38.8394 7.71927L38.8503 7.72472C39.0931 7.84614 39.3502 7.91751 39.6164 7.91751C39.9295 7.91751 40.246 7.85529 40.5032 7.66614C40.6959 7.53157 40.8604 7.36937 40.9895 7.17795L42.5597 4.99716L42.8111 4.64797L42.5033 4.34732C41.4507 3.31924 40.1776 2.493 38.6917 1.86473C37.1959 1.22731 35.4941 0.915009 33.5964 0.915009C31.6834 0.915009 29.9255 1.24599 28.3293 1.91587C26.7407 2.57094 25.3649 3.49542 24.2074 4.68949L24.2074 4.68949L24.2056 4.69139C23.0595 5.88618 22.1734 7.30911 21.5446 8.95335C20.9134 10.5923 20.6014 12.3924 20.6014 14.3475C20.6014 16.276 20.889 18.0655 21.4699 19.7114L21.4699 19.7114L21.471 19.7145C22.0636 21.3593 22.9139 22.7837 24.025 23.9802C25.1361 25.1768 26.4719 26.1089 28.0265 26.7769L28.0278 26.7774C29.6033 27.4492 31.3631 27.78 33.2989 27.78C35.4507 27.78 37.3214 27.4335 38.895 26.7206C40.4704 26.012 41.7992 24.9897 42.8754 23.6566L43.1465 23.3209L42.8541 23.0036L40.9991 20.9911Z" stroke="black"/>
<path d="M15.9464 12.93V12.43H15.4464H6.46145V5.94001H17.1964H17.6964V5.44001V1.69501V1.19501H17.1964H1.23645H0.73645V1.69501V27V27.5H1.23645H5.96145H6.46145V27V17.1925H15.4464H15.9464V16.6925V12.93Z" stroke="black"/>
</svg>
